<?xml version="1.0" encoding="utf-8"?>
<!-- Generator: Adobe Illustrator 26.0.0, SVG Export Plug-In . SVG Version: 6.00 Build 0)  -->
<svg version="1.1" xmlns="http://www.w3.org/2000/svg" xmlns:xlink="http://www.w3.org/1999/xlink" x="0px" y="0px"
	 viewBox="0 0 400 220" style="enable-background:new 0 0 400 220;" xml:space="preserve">
<style type="text/css">
	.st0{fill:#4B76EF;stroke:#4B76EF;stroke-miterlimit:10;}
	.st1{fill:#FCC27C;}
	.st2{fill:#EFA554;}
	.st3{fill:#D7D8DA;}
	.st4{fill:#FFFFFF;}
	.st5{fill:#E8E8E9;}
	.st6{fill:#FFD7A8;}
	.st7{fill:#484849;}
	.st8{fill:#FDDDBF;}
	.st9{fill:#FBD57D;}
	.st10{fill:#F9C350;}
	.st11{fill:#3E3E3F;}
	.st12{fill:#EF9DAD;}
	.st13{fill:#F7F7F8;}
	.st14{fill:#CACCCE;}
</style>
<g id="Layer_1">
	<image style="overflow:visible;" width="512" height="512" xlink:href="icon1.png"  transform="matrix(0.4219 0 0 0.4219 88 -1)">
	</image>
</g>
<g id="Layer_2">
	
		<image style="overflow:visible;" width="580" height="322" xlink:href="AB5A4DAF.jpg"  transform="matrix(0.6778 0 0 0.6778 -2.1398 -1)">
	</image>
</g>
<g id="Layer_3">
	
		<image style="overflow:visible;" width="576" height="321" xlink:href="AB5A4DAD.jpg"  transform="matrix(0.6899 0 0 0.6899 -4.3879 -2)">
	</image>
</g>
<g id="Layer_5">
	<rect x="-6" y="-7" class="st0" width="408" height="231"/>
</g>
<g id="Layer_4">
	<g id="XMLID_106_">
		<polygon id="XMLID_3_" class="st1" points="191.4,210.6 50.6,186.1 79.2,69.7 191.4,85.1 		"/>
		<polygon id="XMLID_15_" class="st1" points="191.4,210.6 332.1,186.1 303.5,69.7 191.4,85.1 		"/>
		<path id="XMLID_84_" class="st2" d="M191.4,89.6v116.7l-5.8-0.9L56.7,184.6l0-0.1c0,0,0,0,0,0l0,0c0,0,0,0,0,0l0-0.1c0,0,0,0,0,0
			l0-0.1h0l0-0.1h0l0-0.1h0l0-0.1h0l0-0.1h0l0-0.1h0l0-0.1h0l0-0.1h0l0-0.1h0l0-0.1h0l0-0.1h0l0-0.1h0l0-0.1h0l0-0.1h0l0-0.1
			c0,0,0,0,0,0l0-0.1h0l0-0.1h0l0-0.1h0l0-0.1h0l0-0.1h0l0-0.1c0,0,0,0,0,0l0-0.1h0l0-0.1h0l0-0.1h0l0-0.1h0l0-0.1h0l0-0.1
			c0,0,0,0,0,0l0-0.1h0l0-0.1h0l0-0.1h0l0-0.1h0l0-0.1h0l0-0.1h0l0-0.1h0l0-0.1h0l0-0.1h0l0-0.1h0l0-0.1h0l0-0.1h0l0-0.1h0l0-0.1h0
			l0-0.1h0l0-0.1h0l0-0.1c0,0,0,0,0,0l0-0.1h0l0-0.1h0l0-0.1h0l0-0.1h0l0-0.1h0l0-0.1c0,0,0,0,0,0l0-0.1h0l0-0.1h0l0-0.1h0l0-0.1h0
			l0-0.1h0l0-0.1c0,0,0,0,0,0l0-0.1h0l0-0.1h0l0-0.1h0l0-0.1h0l0-0.1h0l0-0.1c0,0,0,0,0,0l0-0.1h0l0-0.1h0l0-0.1h0l0-0.1h0l0-0.1h0
			l0-0.1h0l0-0.1h0l0-0.1h0l0-0.1h0l0-0.1h0l0-0.1h0l0-0.1h0l0-0.1h0l0-0.1h0l0-0.1h0l0-0.1h0l0-0.1c0,0,0,0,0,0l0-0.1h0l0-0.1h0
			l0-0.1h0l0-0.1h0l0-0.1h0l0-0.1c0,0,0,0,0,0l0-0.1h0l0-0.1h0l0-0.1h0l0-0.1h0l0-0.1h0l0-0.1c0,0,0,0,0,0l0-0.1h0l0-0.1h0l0-0.1h0
			l0-0.1h0l0-0.1h0l0-0.1c0,0,0,0,0,0l0-0.1L84,75.9c32.4-3.8,66.2-0.3,97.1,10.2l7.3,2.5L191.4,89.6z"/>
		<path id="XMLID_83_" class="st2" d="M326.1,179.4L326.1,179.4L326.1,179.4L326.1,179.4v0.1h0l0,0.1h0l0,0.1h0l0,0.1c0,0,0,0,0,0
			l0,0.1h0l0,0.1h0l0,0.1h0l0,0.1h0l0,0.1h0l0,0.1c0,0,0,0,0,0l0,0.1h0l0,0.1h0l0,0.1h0l0,0.1h0l0,0.1h0l0,0.1c0,0,0,0,0,0l0,0.1h0
			l0,0.1h0l0,0.1h0l0,0.1h0l0,0.1h0l0,0.1h0l0,0.1h0l0,0.1h0l0,0.1h0l0,0.1h0l0,0.1h0l0,0.1h0l0,0.1h0l0,0.1h0l0,0.1h0l0,0.1h0
			l0,0.1c0,0,0,0,0,0l0,0.1h0l0,0.1h0l0,0.1h0l0,0.1h0l0,0.1h0l0,0.1c0,0,0,0,0,0l0,0.1h0l0,0.1h0l0,0.1h0l0,0.1h0l0,0.1h0l0,0.1
			c0,0,0,0,0,0l0,0.1h0l0,0.1h0l0,0.1h0l0,0.1h0l0,0.1h0l0,0.1c0,0,0,0,0,0l0,0.1h0l0,0.1h0l0,0.1h0l0,0.1h0l0,0.1h0l0,0.1h0l0,0.1
			h0l0,0.1h0l0,0.1h0l0,0.1h0l0,0.1h0l0,0.1h0l0,0.1h0l0,0.1h0l0,0.1h0l0,0.1h0l0,0.1c0,0,0,0,0,0l0,0.1h0l0,0.1h0l0,0.1h0l0,0.1h0
			l0,0.1h0l0,0.1c0,0,0,0,0,0l0,0.1h0l0,0.1h0l0,0.1h0l0,0.1h0l0,0.1h0l0,0.1c0,0,0,0,0,0l0,0.1h0l0,0.1h0l0,0.1h0l0,0.1h0l0,0.1h0
			l0,0.1h0l0,0.1h0l0,0.1h0l0,0.1h0l0,0.1c0,0,0,0,0,0l0,0.1c0,0,0,0,0,0l0,0.1c0,0,0,0,0,0l0,0.1c0,0,0,0,0,0l0,0.1c0,0,0,0,0,0
			l0,0.1c0,0,0,0,0,0l0,0.1c0,0,0,0,0,0l0,0c0,0,0,0,0,0l0,0.1l-128.7,20.8v0l-6,1V89.6l3.1-1.1l7.1-2.4
			c22.8-7.7,47.2-11.7,71.5-11.7c8.6,0,17.1,0.5,25.6,1.5l27.3,103.4L326.1,179.4C326.1,179.3,326.1,179.3,326.1,179.4L326.1,179.4z
			"/>
		<g id="XMLID_7_">
			<g id="XMLID_78_">
				<g id="XMLID_76_">
					<path id="XMLID_77_" class="st3" d="M191.4,81v116.7l-5.8-0.9L56.7,175.9l0-0.1c0,0,0,0,0,0l0,0c0,0,0,0,0,0l0-0.1c0,0,0,0,0,0
						l0-0.1h0l0-0.1h0l0-0.1h0l0-0.1h0l0-0.1h0l0-0.1h0l0-0.1h0l0-0.1h0l0-0.1h0l0-0.1h0l0-0.1h0l0-0.1h0l0-0.1h0l0-0.1h0l0-0.1
						c0,0,0,0,0,0l0-0.1h0l0-0.1h0l0-0.1h0l0-0.1h0l0-0.1h0l0-0.1c0,0,0,0,0,0l0-0.1h0l0-0.1h0l0-0.1h0l0-0.1h0l0-0.1h0l0-0.1
						c0,0,0,0,0,0l0-0.1h0l0-0.1h0l0-0.1h0l0-0.1h0l0-0.1h0l0-0.1h0l0-0.1h0l0-0.1h0l0-0.1h0l0-0.1h0l0-0.1h0l0-0.1h0l0-0.1h0l0-0.1
						h0l0-0.1h0l0-0.1h0l0-0.1c0,0,0,0,0,0l0-0.1h0l0-0.1h0l0-0.1h0l0-0.1h0l0-0.1h0l0-0.1c0,0,0,0,0,0l0-0.1h0l0-0.1h0l0-0.1h0
						l0-0.1h0l0-0.1h0l0-0.1c0,0,0,0,0,0l0-0.1h0l0-0.1h0l0-0.1h0l0-0.1h0l0-0.1h0l0-0.1c0,0,0,0,0,0l0-0.1h0l0-0.1h0l0-0.1h0l0-0.1
						h0l0-0.1h0l0-0.1h0l0-0.1h0l0-0.1h0l0-0.1h0l0-0.1h0l0-0.1h0l0-0.1h0l0-0.1h0l0-0.1h0l0-0.1h0l0-0.1h0l0-0.1c0,0,0,0,0,0l0-0.1
						h0l0-0.1h0l0-0.1h0l0-0.1h0l0-0.1h0l0-0.1c0,0,0,0,0,0l0-0.1h0l0-0.1h0l0-0.1h0l0-0.1h0l0-0.1h0l0-0.1c0,0,0,0,0,0l0-0.1h0
						l0-0.1h0l0-0.1h0l0-0.1h0l0-0.1h0l0-0.1c0,0,0,0,0,0l0-0.1L84,67.3c32.4-3.8,66.2-0.3,97.1,10.2l7.3,2.5L191.4,81z"/>
					<path id="XMLID_75_" class="st3" d="M326.1,170.7L326.1,170.7L326.1,170.7L326.1,170.7v0.1h0l0,0.1h0l0,0.1h0l0,0.1
						c0,0,0,0,0,0l0,0.1h0l0,0.1h0l0,0.1h0l0,0.1h0l0,0.1h0l0,0.1c0,0,0,0,0,0l0,0.1h0l0,0.1h0l0,0.1h0l0,0.1h0l0,0.1h0l0,0.1
						c0,0,0,0,0,0l0,0.1h0l0,0.1h0l0,0.1h0l0,0.1h0l0,0.1h0l0,0.1h0l0,0.1h0l0,0.1h0l0,0.1h0l0,0.1h0l0,0.1h0l0,0.1h0l0,0.1h0l0,0.1
						h0l0,0.1h0l0,0.1h0l0,0.1c0,0,0,0,0,0l0,0.1h0l0,0.1h0l0,0.1h0l0,0.1h0l0,0.1h0l0,0.1c0,0,0,0,0,0l0,0.1h0l0,0.1h0l0,0.1h0
						l0,0.1h0l0,0.1h0l0,0.1c0,0,0,0,0,0l0,0.1h0l0,0.1h0l0,0.1h0l0,0.1h0l0,0.1h0l0,0.1c0,0,0,0,0,0l0,0.1h0l0,0.1h0l0,0.1h0l0,0.1
						h0l0,0.1h0l0,0.1h0l0,0.1h0l0,0.1h0l0,0.1h0l0,0.1h0l0,0.1h0l0,0.1h0l0,0.1h0l0,0.1h0l0,0.1h0l0,0.1h0l0,0.1c0,0,0,0,0,0l0,0.1
						h0l0,0.1h0l0,0.1h0l0,0.1h0l0,0.1h0l0,0.1c0,0,0,0,0,0l0,0.1h0l0,0.1h0l0,0.1h0l0,0.1h0l0,0.1h0l0,0.1c0,0,0,0,0,0l0,0.1h0
						l0,0.1h0l0,0.1h0l0,0.1h0l0,0.1h0l0,0.1h0l0,0.1h0l0,0.1h0l0,0.1h0l0,0.1c0,0,0,0,0,0l0,0.1c0,0,0,0,0,0l0,0.1c0,0,0,0,0,0
						l0,0.1c0,0,0,0,0,0l0,0.1c0,0,0,0,0,0l0,0.1c0,0,0,0,0,0l0,0.1c0,0,0,0,0,0l0,0c0,0,0,0,0,0l0,0.1l-128.7,20.8v0l-6,1V81
						l3.1-1.1l7.1-2.4c22.8-7.7,47.2-11.7,71.5-11.7c8.6,0,17.1,0.5,25.6,1.5l27.3,103.4L326.1,170.7
						C326.1,170.7,326.1,170.7,326.1,170.7L326.1,170.7z"/>
					<path id="XMLID_94_" class="st3" d="M191.4,81v116.7l-5.8-0.9L56.7,175.9l0-0.1c0,0,0,0,0,0l0,0c0,0,0,0,0,0l0-0.1c0,0,0,0,0,0
						l0-0.1h0l0-0.1h0l0-0.1h0l0-0.1h0l0-0.1h0l0-0.1h0l0-0.1h0l0-0.1h0l0-0.1h0l0-0.1h0l0-0.1h0l0-0.1h0l0-0.1h0l0-0.1h0l0-0.1
						c0,0,0,0,0,0l0-0.1h0l0-0.1h0l0-0.1h0l0-0.1h0l0-0.1h0l0-0.1c0,0,0,0,0,0l0-0.1h0l0-0.1h0l0-0.1h0l0-0.1h0l0-0.1h0l0-0.1
						c0,0,0,0,0,0l0-0.1h0l0-0.1h0l0-0.1h0l0-0.1h0l0-0.1h0l0-0.1h0l0-0.1h0l0-0.1h0l0-0.1h0l0-0.1h0l0-0.1h0l0-0.1h0l0-0.1h0l0-0.1
						h0l0-0.1h0l0-0.1h0l0-0.1c0,0,0,0,0,0l0-0.1h0l0-0.1h0l0-0.1h0l0-0.1h0l0-0.1h0l0-0.1c0,0,0,0,0,0l0-0.1h0l0-0.1h0l0-0.1h0
						l0-0.1h0l0-0.1h0l0-0.1c0,0,0,0,0,0l0-0.1h0l0-0.1h0l0-0.1h0l0-0.1h0l0-0.1h0l0-0.1c0,0,0,0,0,0l0-0.1h0l0-0.1h0l0-0.1h0l0-0.1
						h0l0-0.1h0l0-0.1h0l0-0.1h0l0-0.1h0l0-0.1h0l0-0.1h0l0-0.1h0l0-0.1h0l0-0.1h0l0-0.1h0l0-0.1h0l0-0.1h0l0-0.1c0,0,0,0,0,0l0-0.1
						h0l0-0.1h0l0-0.1h0l0-0.1h0l0-0.1h0l0-0.1c0,0,0,0,0,0l0-0.1h0l0-0.1h0l0-0.1h0l0-0.1h0l0-0.1h0l0-0.1c0,0,0,0,0,0l0-0.1h0
						l0-0.1h0l0-0.1h0l0-0.1h0l0-0.1h0l0-0.1c0,0,0,0,0,0l0-0.1L84,67.3c32.4-3.8,66.2-0.3,97.1,10.2l7.3,2.5L191.4,81z"/>
					<path id="XMLID_91_" class="st4" d="M191.4,80.9v111.5l-5.6-1.8l-11.7-3.8c-37.9-12.3-77.6-17.8-117.4-16.1h0L84,67.2
						c8.7-1,17.3-1.5,26-1.5c24.1,0,48.1,3.9,71.1,11.7l7.3,2.5L191.4,80.9z"/>
				</g>
			</g>
			<g id="XMLID_81_">
				<g id="XMLID_109_">
					<path id="XMLID_93_" class="st3" d="M326.1,170.7L326.1,170.7L326.1,170.7L326.1,170.7v0.1h0l0,0.1h0l0,0.1h0l0,0.1
						c0,0,0,0,0,0l0,0.1h0l0,0.1h0l0,0.1h0l0,0.1h0l0,0.1h0l0,0.1c0,0,0,0,0,0l0,0.1h0l0,0.1h0l0,0.1h0l0,0.1h0l0,0.1h0l0,0.1
						c0,0,0,0,0,0l0,0.1h0l0,0.1h0l0,0.1h0l0,0.1h0l0,0.1h0l0,0.1h0l0,0.1h0l0,0.1h0l0,0.1h0l0,0.1h0l0,0.1h0l0,0.1h0l0,0.1h0l0,0.1
						h0l0,0.1h0l0,0.1h0l0,0.1c0,0,0,0,0,0l0,0.1h0l0,0.1h0l0,0.1h0l0,0.1h0l0,0.1h0l0,0.1c0,0,0,0,0,0l0,0.1h0l0,0.1h0l0,0.1h0
						l0,0.1h0l0,0.1h0l0,0.1c0,0,0,0,0,0l0,0.1h0l0,0.1h0l0,0.1h0l0,0.1h0l0,0.1h0l0,0.1c0,0,0,0,0,0l0,0.1h0l0,0.1h0l0,0.1h0l0,0.1
						h0l0,0.1h0l0,0.1h0l0,0.1h0l0,0.1h0l0,0.1h0l0,0.1h0l0,0.1h0l0,0.1h0l0,0.1h0l0,0.1h0l0,0.1h0l0,0.1h0l0,0.1c0,0,0,0,0,0l0,0.1
						h0l0,0.1h0l0,0.1h0l0,0.1h0l0,0.1h0l0,0.1c0,0,0,0,0,0l0,0.1h0l0,0.1h0l0,0.1h0l0,0.1h0l0,0.1h0l0,0.1c0,0,0,0,0,0l0,0.1h0
						l0,0.1h0l0,0.1h0l0,0.1h0l0,0.1h0l0,0.1h0l0,0.1h0l0,0.1h0l0,0.1h0l0,0.1c0,0,0,0,0,0l0,0.1c0,0,0,0,0,0l0,0.1c0,0,0,0,0,0
						l0,0.1c0,0,0,0,0,0l0,0.1c0,0,0,0,0,0l0,0.1c0,0,0,0,0,0l0,0.1c0,0,0,0,0,0l0,0c0,0,0,0,0,0l0,0.1l-128.7,20.8v0l-6,1V81
						l3.1-1.1l7.1-2.4c22.8-7.7,47.2-11.7,71.5-11.7c8.6,0,17.1,0.5,25.6,1.5l27.3,103.4L326.1,170.7
						C326.1,170.7,326.1,170.7,326.1,170.7L326.1,170.7z"/>
					<path id="XMLID_90_" class="st4" d="M326.1,170.6L326.1,170.6c-39.8-1.7-79.5,3.8-117.4,16.1l-11.5,3.7l-5.8,1.9V80.9l3.1-1.1
						l7.1-2.4c22.9-7.8,47-11.7,71.1-11.7c8.7,0,17.4,0.5,26,1.5L326.1,170.6z"/>
				</g>
			</g>
		</g>
		<polygon id="XMLID_89_" class="st5" points="197.2,190.5 191.4,192.4 185.7,190.5 188.4,79.9 188.4,79.9 191.4,80.9 194.5,79.8 
			194.5,79.9 		"/>
		<g id="XMLID_85_">
			<polygon id="XMLID_5_" class="st6" points="191.4,210.6 50.6,186.1 52.1,180.4 191.4,204.3 			"/>
			<polygon id="XMLID_13_" class="st6" points="191.4,210.6 332.1,186.1 330.7,180.4 191.4,204.3 			"/>
		</g>
	</g>
	<g id="XMLID_104_">
		<path id="XMLID_123_" class="st7" d="M202.2,89.7l-0.8-1.5c0.1-0.1,12.3-6.4,29.4-10.6c15.8-3.9,39.2-6.9,61,1.5l-0.6,1.6
			c-21.3-8.2-44.4-5.3-59.9-1.4C214.3,83.4,202.3,89.6,202.2,89.7z"/>
	</g>
	<g id="XMLID_105_">
		<path id="XMLID_122_" class="st7" d="M202.2,103.2l-0.8-1.5c0.1-0.1,12.3-6.4,29.4-10.6c15.8-3.9,39.2-6.9,61,1.5l-0.6,1.6
			c-21.3-8.2-44.4-5.3-59.9-1.4C214.3,96.9,202.3,103.1,202.2,103.2z"/>
	</g>
	<g id="XMLID_115_">
		<path id="XMLID_163_" class="st7" d="M262.6,100.6c-11.9-0.2-23.1,1.7-31.9,3.9c-17.1,4.3-29.3,10.6-29.4,10.6l0.8,1.5
			c0.1-0.1,12.1-6.3,29-10.5c8.7-2.2,19.7-4,31.5-3.8V100.6z"/>
	</g>
	<g id="XMLID_96_">
		<path id="XMLID_97_" class="st8" d="M280.7,99.8l-0.2,0.4l0,0l-9.9,10.5l-3.8,4c-0.4,0.4-0.8,0.6-1.3,0.7c-0.5,0.1-1,0-1.5-0.2
			c-1-0.4-1.5-1.4-1.5-2.4l0.4-5.5l1-14.3l0,0l0.2-0.4l14.1-9.6L280.7,99.8z"/>
		<polygon id="XMLID_98_" class="st9" points="314.3,23.8 280.5,100.3 280.5,100.3 275.5,104.4 275.1,97.6 274.4,98.3 269.9,101.9 
			269.6,95.2 269.5,95.2 264.3,99.5 264,93 264,93 297.7,16.5 		"/>
		<polygon id="XMLID_88_" class="st10" points="308.4,21.2 274.4,98.3 269.9,101.9 269.6,95.2 269.5,95.2 303.2,18.9 		"/>
		<path id="XMLID_95_" class="st11" d="M270.6,110.7l-3.8,4c-0.4,0.4-0.8,0.6-1.3,0.7c-0.5,0.1-1,0-1.5-0.2c-1-0.4-1.5-1.4-1.5-2.4
			l0.4-5.5c1.4,0,2.8,0.3,4.1,0.9C268.5,108.8,269.7,109.7,270.6,110.7z"/>
		<path id="XMLID_4_" class="st12" d="M312.9,26.9l-16.5-7.3l4.1-9.3c2-4.6,7.3-6.6,11.9-4.6l0,0c4.6,2,6.6,7.3,4.6,11.9L312.9,26.9
			z"/>
		
			<rect id="XMLID_6_" x="297.2" y="15.6" transform="matrix(0.9148 0.4039 -0.4039 0.9148 34.0086 -122.0038)" class="st13" width="18.1" height="8"/>
		<g id="XMLID_79_">
			<path id="XMLID_9_" class="st14" d="M314.1,20.7l-14.3-6.3c-0.2-0.1-0.3-0.4-0.2-0.6l0,0c0.1-0.2,0.4-0.3,0.6-0.2l14.3,6.3
				c0.2,0.1,0.3,0.4,0.2,0.6l0,0C314.6,20.7,314.3,20.8,314.1,20.7z"/>
			<path id="XMLID_86_" class="st14" d="M313.9,22.4l-14.7-6.5c-0.2-0.1-0.3-0.4-0.2-0.6l0,0c0.1-0.2,0.4-0.3,0.6-0.2l14.7,6.5
				c0.2,0.1,0.3,0.4,0.2,0.6l0,0C314.4,22.4,314.1,22.5,313.9,22.4z"/>
			<path id="XMLID_87_" class="st14" d="M313.2,23.8l-14.7-6.5c-0.2-0.1-0.3-0.4-0.2-0.6l0,0c0.1-0.2,0.4-0.3,0.6-0.2l14.7,6.5
				c0.2,0.1,0.3,0.4,0.2,0.6l0,0C313.7,23.8,313.5,23.9,313.2,23.8z"/>
			<path id="XMLID_92_" class="st14" d="M312.6,25.3l-14.7-6.5c-0.2-0.1-0.3-0.4-0.2-0.6l0,0c0.1-0.2,0.4-0.3,0.6-0.2l14.7,6.5
				c0.2,0.1,0.3,0.4,0.2,0.6l0,0C313.1,25.3,312.8,25.4,312.6,25.3z"/>
		</g>
	</g>
	<g id="XMLID_00000019642297208845233970000003132566010972920456_">
		<path id="XMLID_00000172400379988348357630000004985309958826061243_" class="st7" d="M264.1,112.6c-11.9-0.2-23.1,1.7-31.9,3.9
			c-17.1,4.3-29.3,10.6-29.4,10.6l0.8,1.5c0.1-0.1,12.1-6.3,29-10.5c8.7-2.2,19.7-4,31.5-3.8V112.6z"/>
	</g>
</g>
</svg>
