<?xml version="1.0" encoding="utf-8"?>
<!-- Generator: Adobe Illustrator 26.0.0, SVG Export Plug-In . SVG Version: 6.00 Build 0)  -->
<svg version="1.1" xmlns="http://www.w3.org/2000/svg" xmlns:xlink="http://www.w3.org/1999/xlink" x="0px" y="0px"
	 viewBox="0 0 468.9 500" style="enable-background:new 0 0 468.9 500;" xml:space="preserve">
<style type="text/css">
	.st0{fill:#B1B4C4;}
	.st1{fill:#E4E7F2;}
	.st2{fill:#D6D8E5;}
	.st3{fill:#FFFFFF;}
	.st4{opacity:0.5;fill:url(#SVGID_1_);enable-background:new    ;}
	.st5{opacity:0.4;fill:#D6D8E5;enable-background:new    ;}
	.st6{fill:#2B303F;}
	.st7{fill:#C3C6D1;}
	.st8{fill:#E9EAF2;}
	.st9{fill:#283E79;}
	.st10{fill:url(#SVGID_00000160908128239217156940000015030870075198606726_);}
	.st11{fill:none;stroke:#CCCEDD;stroke-width:1.06;stroke-miterlimit:10;}
	.st12{fill:#FFCEA9;}
	.st13{fill:#38226D;}
	.st14{fill:#9C73FF;}
	.st15{fill:#F4F4F4;}
	.st16{fill:#3A2C6D;}
	.st17{fill:#BFBFBF;}
	.st18{fill:#E5E5E5;}
	.st19{fill:#EDEDED;}
	.st20{fill:#211B49;}
	.st21{fill:#2E245B;}
	.st22{fill:#A298E2;}
	.st23{fill:#C33AFC;}
	.st24{fill:#F4CE2C;}
	.st25{fill:#FF8657;}
	.st26{fill:#4D3BFF;}
	.st27{fill:#FFFFFF;stroke:#FFFFFF;stroke-miterlimit:10;}
</style>
<g id="Layer_1">
	<g id="Слой_2">
		<g id="Слой_1-2">
			<g id="Laptop">
				<path class="st0" d="M450,384.6L199.9,240.2c-3.5-2-6.4-7.5-6.4-12.1V34.6c0-4.7,2.8-6.8,6.4-4.8L450,174.2
					c3.5,2,6.4,7.5,6.4,12.1v193.5C456.4,384.5,453.5,386.7,450,384.6z"/>
				<polygon class="st0" points="451.3,386.6 454.1,385 452.9,376.8 				"/>
				<path class="st0" d="M193.1,31l2.7-1.6l3.9,2.2c0,0-4.2,0.6-4.3,0.6S193.1,31,193.1,31z"/>
				<path class="st1" d="M447.8,386L197.6,241.6c-3.5-2-6.4-7.5-6.4-12.1V36c0-4.7,2.9-6.8,6.4-4.8l250.1,144.4
					c3.5,2,6.4,7.5,6.4,12.1v193.4C454.1,385.8,451.3,388,447.8,386z"/>
				<path class="st2" d="M447.3,386.2L197.2,241.8c-3.5-2-6.4-7.5-6.4-12.1V36.2c0-4.7,2.9-6.8,6.4-4.8l250.1,144.4
					c3.5,2,6.4,7.5,6.4,12.1v193.5C453.7,386.1,450.8,388.2,447.3,386.2z"/>
				<path class="st3" d="M450.2,374.4L194,226.5L194.1,37c0-1.9,1.4-2.7,3-1.8l250.1,144.4c1.8,1.2,2.9,3.1,3,5.3L450.2,374.4z"/>
				
					<linearGradient id="SVGID_1_" gradientUnits="userSpaceOnUse" x1="-239.6839" y1="-1943.8965" x2="-239.6839" y2="-1776.6265" gradientTransform="matrix(0.87 0.5 0 -1.15 530.62 -1825.6201)">
					<stop  offset="0.21" style="stop-color:#FFFFFF;stop-opacity:0"/>
					<stop  offset="1" style="stop-color:#FFFFFF;stop-opacity:0.2"/>
				</linearGradient>
				<path class="st4" d="M450.1,374.5L194,226.5L194.1,37c0-1.9,1.4-2.7,3-1.8l250.1,144.4c1.8,1.2,2.9,3.1,3,5.3L450.1,374.5z"/>
				<path class="st5" d="M258.7,498.6L8.6,354.2c-3.5-2-3.1-5.6,1-7.9l167.6-96.7c4-2.3,10.2-2.6,13.7-0.6l250.1,144.4
					c3.5,2,3.1,5.6-1,7.9l-167.6,96.7C268.3,500.4,262.2,500.7,258.7,498.6z"/>
				<path class="st0" d="M264.1,495.4L14,351c-3.5-2-3.1-5.6,1-7.9l167.6-96.7c4-2.3,10.2-2.6,13.7-0.6l250.1,144.4
					c3.5,2,3.1,5.6-1,7.9l-167.5,96.7C273.8,497.1,267.6,497.4,264.1,495.4z"/>
				<polygon class="st0" points="11.6,347.7 11.6,343 17,345.2 				"/>
				<polygon class="st0" points="448.7,393.7 448.7,389.1 444.8,390.4 447.4,394.2 				"/>
				<path class="st1" d="M264.1,491.4L14,347c-3.5-2-3.1-5.6,1-7.9l167.6-96.7c4-2.3,10.2-2.6,13.7-0.6l250.1,144.4
					c3.5,2,3.1,5.6-1,7.9l-167.5,96.7C273.8,493.1,267.6,493.4,264.1,491.4z"/>
				<path class="st2" d="M264.1,490.8L14,346.4c-3.5-2-3.1-5.6,1-7.9l167.6-96.7c4-2.3,10.2-2.6,13.7-0.6l250.1,144.4
					c3.5,2,3.1,5.6-1,7.9l-167.5,96.7C273.8,492.5,267.6,492.8,264.1,490.8z"/>
				<path class="st6" d="M177.9,274.4l-11.6-6.7c-1-0.5-0.8-1.5,0.3-2.1l11.1-6.4c1.1-0.6,2.5-0.7,3.7-0.1l11.7,6.7
					c0.9,0.5,0.8,1.5-0.3,2.1l-11.1,6.4C180.5,274.8,179.1,274.9,177.9,274.4z"/>
				<path class="st6" d="M194.4,283.9l-11.6-6.7c-0.9-0.5-0.8-1.5,0.3-2.1l11.1-6.4c1.1-0.6,2.5-0.7,3.7-0.1l11.6,6.7
					c1,0.5,0.8,1.5-0.3,2.1l-11.1,6.4C197,284.4,195.6,284.4,194.4,283.9z"/>
				<path class="st6" d="M211.1,293.5l-11.6-6.7c-1-0.5-0.8-1.5,0.3-2.1l11.1-6.4c1.1-0.6,2.5-0.7,3.7-0.2l11.6,6.7
					c1,0.5,0.8,1.5-0.3,2.1l-11.1,6.4C213.6,294,212.3,294,211.1,293.5z"/>
				<path class="st6" d="M227.4,302.9l-11.6-6.7c-0.9-0.5-0.8-1.5,0.3-2.1l11.1-6.4c1.1-0.6,2.5-0.7,3.7-0.1l11.6,6.7
					c0.9,0.5,0.8,1.5-0.3,2.1l-11.1,6.4C229.9,303.4,228.6,303.5,227.4,302.9z"/>
				<path class="st6" d="M243.9,312.4l-11.6-6.7c-1-0.5-0.8-1.5,0.3-2.1l11.1-6.4c1.1-0.6,2.5-0.7,3.7-0.1l11.6,6.7
					c1,0.5,0.8,1.5-0.3,2.1l-11.1,6.4C246.4,312.9,245,313,243.9,312.4z"/>
				<path class="st6" d="M260.3,322l-11.6-6.7c-0.9-0.5-0.8-1.5,0.3-2.1l11.1-6.4c1.1-0.6,2.5-0.7,3.7-0.1l11.6,6.7
					c1,0.5,0.8,1.5-0.3,2.1l-11.1,6.4C262.9,322.5,261.5,322.5,260.3,322z"/>
				<path class="st6" d="M276.8,331.5l-11.6-6.7c-1-0.5-0.8-1.5,0.3-2.1l11.1-6.4c1.1-0.6,2.5-0.7,3.7-0.1l11.6,6.7
					c1,0.5,0.8,1.5-0.3,2.1l-11.1,6.4C279.4,332,278,332,276.8,331.5z"/>
				<path class="st6" d="M293.3,341l-11.6-6.7c-1-0.5-0.8-1.5,0.3-2.1l11.1-6.4c1.1-0.6,2.5-0.7,3.7-0.2l11.6,6.7
					c1,0.5,0.8,1.5-0.3,2.1l-11.1,6.4C295.9,341.5,294.5,341.5,293.3,341z"/>
				<path class="st6" d="M309.8,350.5l-11.6-6.7c-1-0.5-0.8-1.5,0.3-2.1l11.1-6.4c1.1-0.6,2.5-0.7,3.7-0.2l11.6,6.7
					c1,0.5,0.8,1.5-0.3,2.1l-11.1,6.4C312.4,351,311,351,309.8,350.5z"/>
				<path class="st6" d="M326.3,360l-11.6-6.7c-1-0.5-0.8-1.5,0.3-2.1l11.1-6.4c1.1-0.6,2.5-0.7,3.7-0.1l11.6,6.7
					c1,0.5,0.8,1.5-0.3,2.1l-11.1,6.4C328.9,360.5,327.5,360.5,326.3,360z"/>
				<path class="st6" d="M342.8,369.5l-11.6-6.7c-1-0.5-0.8-1.5,0.3-2.1l11.1-6.4c1.1-0.6,2.5-0.7,3.7-0.1l11.6,6.7
					c1,0.5,0.8,1.5-0.3,2.1l-11.1,6.4C345.3,370,344,370.1,342.8,369.5z"/>
				<path class="st6" d="M359.3,379.1l-11.6-6.7c-1-0.5-0.8-1.5,0.3-2.1l11.1-6.4c1.1-0.6,2.5-0.7,3.7-0.1l11.6,6.7
					c1,0.5,0.8,1.5-0.3,2.1l-11.1,6.4C361.8,379.6,360.5,379.6,359.3,379.1z"/>
				<path class="st6" d="M375.7,388.6l-11.6-6.7c-1-0.5-0.8-1.5,0.3-2.1l11.1-6.4c1.1-0.6,2.5-0.7,3.7-0.2l11.6,6.7
					c1,0.5,0.8,1.5-0.3,2.1l-11.1,6.4C378.3,389.1,376.9,389.1,375.7,388.6z"/>
				<path class="st6" d="M400.2,402.7l-19.6-11.3c-1-0.5-0.8-1.5,0.3-2.1l11.1-6.4c1.1-0.6,2.5-0.7,3.7-0.2l19.5,11.3
					c1,0.5,0.8,1.5-0.3,2.1l-11.1,6.4C402.7,403.2,401.4,403.2,400.2,402.7z"/>
				<path class="st6" d="M186.4,297.7l-11.6-6.7c-1-0.5-0.8-1.5,0.3-2.1l11.1-6.4c1.1-0.6,2.5-0.7,3.7-0.1l11.6,6.7
					c0.9,0.5,0.8,1.5-0.3,2.1l-11.1,6.4C188.9,298.2,187.6,298.2,186.4,297.7z"/>
				<path class="st6" d="M202.9,307.2l-11.6-6.7c-0.9-0.5-0.8-1.5,0.3-2.1l11.1-6.4c1.1-0.6,2.5-0.7,3.7-0.1l11.7,6.7
					c0.9,0.5,0.8,1.5-0.3,2.1l-11.1,6.4C205.5,307.7,204.1,307.8,202.9,307.2z"/>
				<path class="st6" d="M219.4,316.8l-11.6-6.7c-1-0.5-0.8-1.5,0.3-2.1l11.1-6.4c1.1-0.6,2.5-0.7,3.7-0.1l11.6,6.7
					c0.9,0.5,0.8,1.5-0.3,2.1l-11.1,6.4C222,317.3,220.6,317.3,219.4,316.8z"/>
				<path class="st6" d="M235.9,326.3l-11.6-6.7c-0.9-0.5-0.8-1.5,0.3-2.1l11.1-6.4c1.1-0.6,2.5-0.7,3.7-0.2l11.6,6.8
					c0.9,0.5,0.8,1.5-0.3,2.1l-11.1,6.4C238.5,326.8,237.1,326.8,235.9,326.3z"/>
				<path class="st6" d="M252.3,335.8l-11.6-6.8c-0.9-0.5-0.8-1.5,0.3-2.1l11.1-6.4c1.1-0.6,2.5-0.7,3.7-0.2l11.7,6.7
					c1,0.5,0.8,1.5-0.3,2.1l-11.1,6.4C254.9,336.2,253.5,336.3,252.3,335.8z"/>
				<path class="st6" d="M268.8,345.3l-11.6-6.7c-1-0.5-0.8-1.5,0.3-2.1l11.1-6.4c1.1-0.6,2.5-0.7,3.7-0.1l11.6,6.7
					c1,0.5,0.8,1.5-0.3,2.1l-11.1,6.4C271.4,345.8,270,345.8,268.8,345.3z"/>
				<path class="st6" d="M285.3,354.8l-11.6-6.7c-1-0.5-0.8-1.5,0.3-2.1l11.1-6.4c1.1-0.6,2.5-0.7,3.7-0.2l11.6,6.7
					c1,0.5,0.8,1.5-0.3,2.1l-11.1,6.4C287.9,355.3,286.5,355.4,285.3,354.8z"/>
				<path class="st6" d="M301.9,364.4l-11.6-6.7c-1-0.5-0.8-1.5,0.3-2.1l11.1-6.4c1.1-0.6,2.5-0.7,3.7-0.1l11.6,6.7
					c1,0.5,0.8,1.5-0.3,2.1l-11.1,6.4C304.4,364.9,303,364.9,301.9,364.4z"/>
				<path class="st6" d="M318.4,373.9l-11.6-6.7c-1-0.5-0.8-1.5,0.3-2.1l11.1-6.4c1.1-0.6,2.5-0.7,3.7-0.1l11.6,6.7
					c1,0.5,0.8,1.5-0.3,2.1l-11.1,6.4C320.9,374.4,319.6,374.4,318.4,373.9z"/>
				<path class="st6" d="M334.9,383.4l-11.6-6.7c-1-0.5-0.8-1.5,0.3-2.1l11.1-6.4c1.1-0.6,2.5-0.7,3.7-0.2l11.7,6.7
					c1,0.5,0.8,1.5-0.3,2.1l-11.1,6.4C337.5,383.9,336.1,384,334.9,383.4z"/>
				<path class="st6" d="M351.4,393l-11.6-6.7c-1-0.5-0.8-1.5,0.3-2.1l11.1-6.4c1.1-0.6,2.5-0.7,3.7-0.1l11.6,6.7
					c1,0.5,0.8,1.5-0.3,2.1l-11.1,6.4C354,393.5,352.6,393.5,351.4,393z"/>
				<path class="st6" d="M367.9,402.5l-11.6-6.7c-1-0.5-0.8-1.5,0.3-2.1l11.1-6.4c1.1-0.6,2.5-0.7,3.7-0.2l11.7,6.7
					c1,0.5,0.8,1.5-0.3,2.1l-11.1,6.4C370.5,403,369.1,403.1,367.9,402.5z"/>
				<path class="st6" d="M169.9,288.2l-19.6-11.3c-0.9-0.5-0.8-1.5,0.3-2.1l11.1-6.4c1.1-0.6,2.5-0.7,3.7-0.2l19.6,11.3
					c0.9,0.5,0.8,1.5-0.3,2.1l-11.1,6.4C172.4,288.6,171.1,288.7,169.9,288.2z"/>
				<path class="st6" d="M399.4,403.3l-11.6-6.7c-1.1-0.6-2.4-0.6-3.5,0l-11.7,6.8c-1,0.5-1,1.4,0,2l0.9,0.5c0.9,0.5,0.9,1.3,0,1.8
					l-12.5,7.2c-1,0.6-1,1.5,0,2l7.4,4.3c1.1,0.6,2.4,0.6,3.5,0l11.6-6.7l2.4-1.4l1.7-1l1.7-1l10-5.8
					C400.3,404.7,400.3,403.8,399.4,403.3z"/>
				<path class="st6" d="M114.1,311.3l-11.6-6.7c-1-0.5-0.8-1.5,0.3-2.1l11.1-6.4c1.1-0.6,2.5-0.7,3.7-0.1l11.6,6.7
					c0.9,0.5,0.8,1.5-0.3,2.1l-11.1,6.4C116.6,311.8,115.3,311.8,114.1,311.3z"/>
				<path class="st6" d="M130.5,320.8l-11.6-6.7c-1-0.5-0.8-1.5,0.3-2.1l11.1-6.4c1.1-0.6,2.5-0.7,3.7-0.1l11.6,6.7
					c0.9,0.5,0.8,1.5-0.3,2.1l-11.1,6.4C133.1,321.3,131.7,321.3,130.5,320.8z"/>
				<path class="st6" d="M146.9,330.3l-11.6-6.7c-1-0.5-0.8-1.5,0.3-2.1l11.1-6.4c1.1-0.6,2.5-0.7,3.7-0.1l11.6,6.7
					c0.9,0.5,0.8,1.5-0.3,2.1l-11.1,6.4C149.5,330.8,148.1,330.8,146.9,330.3z"/>
				<path class="st6" d="M286.9,411.1l-11.6-6.7c-1-0.5-0.8-1.5,0.3-2.1l11.1-6.4c1.1-0.6,2.5-0.7,3.7-0.2l11.6,6.7
					c1,0.5,0.8,1.5-0.3,2.1l-11.1,6.5C289.5,411.6,288.1,411.7,286.9,411.1z"/>
				<path class="st6" d="M303.4,420.6l-11.6-6.7c-1-0.5-0.8-1.5,0.3-2.1l11.1-6.4c1.1-0.6,2.5-0.7,3.7-0.1l11.6,6.7
					c1,0.5,0.8,1.5-0.3,2.1l-11.1,6.4C305.9,421.1,304.6,421.1,303.4,420.6z"/>
				<path class="st6" d="M319.8,430.1l-11.6-6.7c-1-0.5-0.8-1.5,0.3-2.1l11.1-6.4c1.1-0.6,2.5-0.7,3.7-0.1l11.6,6.7
					c1,0.5,0.8,1.5-0.3,2.1l-11.1,6.4C322.4,430.6,321,430.6,319.8,430.1z"/>
				<path class="st6" d="M336.2,439.6l-11.6-6.7c-1-0.5-0.8-1.5,0.3-2.1l11.1-6.4c1.1-0.6,2.5-0.7,3.7-0.1l11.6,6.7
					c1,0.5,0.8,1.5-0.3,2.1l-11.1,6.4C338.8,440.1,337.5,440.1,336.2,439.6z"/>
				<path class="st6" d="M167.6,342.2l-15.9-9.2c-0.9-0.5-0.8-1.5,0.3-2.1l11.1-6.4c1.1-0.6,2.5-0.7,3.7-0.1l15.9,9.2
					c1,0.5,0.8,1.5-0.3,2.1l-11.1,6.4C170.2,342.7,168.8,342.8,167.6,342.2z"/>
				<path class="st6" d="M270.5,401.6l-15.9-9.2c-1-0.5-0.8-1.5,0.3-2.1l11.1-6.4c1.1-0.6,2.5-0.7,3.7-0.1l15.9,9.2
					c1,0.5,0.8,1.5-0.3,2.1l-11.1,6.4C273.1,402.1,271.7,402.2,270.5,401.6z"/>
				<path class="st6" d="M249.8,389.7L172.4,345c-0.9-0.5-0.8-1.5,0.3-2.1l11.1-6.4c1.1-0.6,2.5-0.7,3.7-0.1l77.4,44.7
					c1,0.5,0.8,1.5-0.3,2.1l-11.1,6.4C252.4,390.2,251,390.2,249.8,389.7z"/>
				<path class="st6" d="M174.9,309.5l-11.6-6.7c-0.9-0.5-0.8-1.5,0.3-2.1l11.1-6.4c1.1-0.6,2.5-0.7,3.7-0.1l11.7,6.7
					c1,0.5,0.8,1.5-0.3,2.1l-11.1,6.4C177.5,310,176.1,310.1,174.9,309.5z"/>
				<path class="st6" d="M191.4,319l-11.6-6.7c-0.9-0.5-0.8-1.5,0.3-2.1l11.1-6.4c1.1-0.6,2.5-0.7,3.7-0.2l11.6,6.7
					c1,0.5,0.8,1.5-0.3,2.1l-11.1,6.4C193.9,319.5,192.6,319.5,191.4,319z"/>
				<path class="st6" d="M207.8,328.5l-11.6-6.7c-1-0.5-0.8-1.5,0.3-2.1l11.1-6.4c1.1-0.6,2.5-0.7,3.7-0.1l11.6,6.7
					c1,0.5,0.8,1.5-0.3,2.1l-11.1,6.4C210.4,329,209,329.1,207.8,328.5z"/>
				<path class="st6" d="M224.3,338l-11.6-6.7c-1-0.5-0.8-1.5,0.3-2.1l11.1-6.4c1.1-0.6,2.5-0.7,3.7-0.1l11.6,6.7
					c1,0.5,0.8,1.5-0.3,2.1l-11.1,6.4C226.9,338.5,225.5,338.6,224.3,338z"/>
				<path class="st6" d="M240.8,347.5l-11.6-6.7c-1-0.5-0.8-1.5,0.3-2.1l11.1-6.4c1.1-0.6,2.5-0.7,3.7-0.1l11.6,6.7
					c1,0.5,0.8,1.5-0.3,2.1l-11.1,6.4C243.3,348,242,348.1,240.8,347.5z"/>
				<path class="st6" d="M257.2,357.1l-11.6-6.7c-1-0.5-0.8-1.5,0.3-2.1l11.1-6.4c1.1-0.6,2.5-0.7,3.7-0.2l11.6,6.7
					c1,0.5,0.8,1.5-0.3,2.1l-11.1,6.4C259.8,357.6,258.4,357.6,257.2,357.1z"/>
				<path class="st6" d="M273.7,366.6l-11.6-6.7c-1-0.5-0.8-1.5,0.3-2.1l11.1-6.4c1.1-0.6,2.5-0.7,3.7-0.1l11.6,6.7
					c1,0.5,0.8,1.5-0.3,2.1l-11.1,6.4C276.3,367,274.9,367.1,273.7,366.6z"/>
				<path class="st6" d="M290.2,376.1l-11.6-6.7c-1-0.5-0.8-1.5,0.3-2.1l11.1-6.4c1.1-0.6,2.5-0.7,3.7-0.1l11.6,6.7
					c1,0.5,0.8,1.5-0.3,2.1l-11.1,6.4C292.7,376.6,291.4,376.6,290.2,376.1z"/>
				<path class="st6" d="M306.6,385.6l-11.6-6.7c-1-0.5-0.8-1.5,0.3-2.1l11.1-6.4c1.1-0.6,2.5-0.7,3.7-0.1l11.6,6.7
					c1,0.5,0.8,1.5-0.3,2.1l-11.1,6.4C309.2,386.1,307.8,386.1,306.6,385.6z"/>
				<path class="st6" d="M323.1,395.1l-11.6-6.7c-1-0.5-0.8-1.5,0.3-2.1l11.1-6.4c1.1-0.6,2.5-0.7,3.7-0.2l11.6,6.7
					c1,0.5,0.8,1.5-0.3,2.1l-11.1,6.4C325.7,395.6,324.3,395.6,323.1,395.1z"/>
				<path class="st6" d="M339.6,404.6l-11.6-6.7c-1-0.5-0.8-1.5,0.3-2.1l11.1-6.4c1.1-0.6,2.5-0.7,3.7-0.1l11.6,6.7
					c1,0.5,0.8,1.5-0.3,2.1l-11.1,6.4C342.1,405.1,340.8,405.1,339.6,404.6z"/>
				<path class="st6" d="M356,414.1l-11.6-6.7c-1-0.5-0.8-1.5,0.3-2.1l11.1-6.4c1.1-0.6,2.5-0.7,3.7-0.1l11.6,6.7
					c1,0.5,0.8,1.5-0.3,2.1l-11.1,6.5C358.6,414.6,357.2,414.7,356,414.1z"/>
				<path class="st6" d="M158.4,300l-24.1-13.9c-1-0.5-0.8-1.5,0.3-2.1l11.1-6.4c1.1-0.6,2.5-0.7,3.7-0.1l24.1,13.9
					c1,0.5,0.8,1.5-0.3,2.1l-11.1,6.4C161,300.5,159.6,300.5,158.4,300z"/>
				<path class="st6" d="M150.7,314l-11.6-6.7c-0.9-0.5-0.8-1.5,0.3-2.1l11.1-6.4c1.1-0.6,2.5-0.7,3.7-0.2l11.6,6.7
					c0.9,0.5,0.8,1.5-0.3,2.1l-11.1,6.4C153.3,314.5,151.9,314.5,150.7,314z"/>
				<path class="st6" d="M167.2,323.5l-11.6-6.7c-0.9-0.5-0.8-1.5,0.3-2.1l11.1-6.4c1.1-0.6,2.5-0.7,3.7-0.1l11.6,6.7
					c1,0.5,0.8,1.5-0.3,2.1l-11.1,6.4C169.8,324,168.4,324.1,167.2,323.5z"/>
				<path class="st6" d="M183.7,333l-11.7-6.7c-1-0.5-0.8-1.5,0.3-2.1l11.1-6.4c1.1-0.6,2.5-0.7,3.7-0.2l11.6,6.7
					c1,0.5,0.8,1.5-0.3,2.1l-11.1,6.4C186.2,333.5,184.8,333.5,183.7,333z"/>
				<path class="st6" d="M200.1,342.5l-11.6-6.7c-1-0.5-0.8-1.5,0.3-2.1l11.1-6.4c1.1-0.6,2.5-0.7,3.7-0.1l11.6,6.7
					c0.9,0.5,0.8,1.5-0.3,2.1l-11.1,6.4C202.7,343,201.3,343.1,200.1,342.5z"/>
				<path class="st6" d="M216.6,352l-11.6-6.7c-0.9-0.5-0.8-1.5,0.3-2.1l11.1-6.4c1.1-0.6,2.5-0.7,3.7-0.1l11.6,6.7
					c0.9,0.5,0.8,1.5-0.3,2.1l-11.1,6.4C219.2,352.5,217.8,352.6,216.6,352z"/>
				<path class="st6" d="M233.1,361.5l-11.6-6.7c-0.9-0.5-0.8-1.5,0.3-2.1l11.1-6.4c1.1-0.6,2.5-0.7,3.7-0.1l11.6,6.7
					c0.9,0.5,0.8,1.5-0.3,2.1l-11.1,6.4C235.6,362,234.3,362.1,233.1,361.5z"/>
				<path class="st6" d="M249.5,371.1l-11.6-6.7c-0.9-0.5-0.8-1.5,0.3-2.1l11.1-6.4c1.1-0.6,2.5-0.7,3.7-0.1l11.6,6.7
					c1,0.5,0.8,1.5-0.3,2.1l-11.1,6.4C252.1,371.5,250.7,371.6,249.5,371.1z"/>
				<path class="st6" d="M266,380.6l-11.6-6.7c-0.9-0.5-0.8-1.5,0.3-2.1l11.1-6.4c1.1-0.6,2.5-0.7,3.7-0.2l11.6,6.7
					c1,0.5,0.8,1.5-0.3,2.1l-11.1,6.4C268.6,381,267.2,381.1,266,380.6z"/>
				<path class="st6" d="M282.5,390.1l-11.6-6.7c-1-0.5-0.8-1.5,0.3-2.1l11.1-6.4c1.1-0.6,2.5-0.7,3.7-0.1l11.6,6.7
					c1,0.5,0.8,1.5-0.3,2.1l-11.1,6.4C285,390.6,283.6,390.6,282.5,390.1z"/>
				<path class="st6" d="M298.9,399.6l-11.6-6.7c-1-0.5-0.8-1.5,0.3-2.1l11.1-6.4c1.1-0.6,2.5-0.7,3.7-0.2l11.6,6.7
					c1,0.5,0.8,1.5-0.3,2.1l-11.1,6.4C301.5,400.1,300.1,400.1,298.9,399.6z"/>
				<path class="st6" d="M315.4,409.1l-11.6-6.7c-1-0.5-0.8-1.5,0.3-2.1l11.1-6.4c1.1-0.6,2.5-0.7,3.7-0.1l11.6,6.7
					c1,0.5,0.8,1.5-0.3,2.1l-11.1,6.4C318,409.6,316.6,409.6,315.4,409.1z"/>
				<path class="st6" d="M352.2,430.4l-32-18.5c-1-0.5-0.8-1.5,0.3-2.1l11.1-6.4c1.1-0.6,2.5-0.7,3.7-0.1l32,18.5
					c1,0.5,0.8,1.5-0.3,2.1l-11.1,6.4C354.8,430.8,353.4,430.9,352.2,430.4z"/>
				<path class="st6" d="M134.3,304.5l-15.9-9.2c-1-0.5-0.8-1.5,0.3-2.1l11.1-6.4c1.1-0.6,2.5-0.7,3.7-0.2l15.9,9.2
					c0.9,0.5,0.8,1.5-0.3,2.1l-11.1,6.4C136.9,305,135.5,305.1,134.3,304.5z"/>
				<path class="st6" d="M416.7,393.1l-233.8-135c-1-0.5-0.8-1.5,0.3-2.1l5.6-3.2c1.1-0.6,2.5-0.7,3.7-0.2l233.8,135
					c1,0.5,0.8,1.5-0.3,2.1l-5.5,3.2C419.3,393.6,417.9,393.7,416.7,393.1z"/>
				<path class="st0" d="M271.9,408.5c-0.3,0.7-0.9,1.3-1.6,1.7l-64.3,37.1c-2.2,1.2-4.8,1.3-7.1,0.3l-110-63.5
					c-0.5-0.2-0.8-0.6-1.1-1.1c-0.4-1,0.2-2.1,1.6-3l64.3-37.2c2.2-1.2,4.8-1.3,7.1-0.3l110,63.5
					C271.7,406.5,272.2,407.5,271.9,408.5z"/>
				<path class="st7" d="M271.9,408.5c-0.3,0.7-0.9,1.3-1.6,1.7l-64.3,37.1c-2.2,1.2-4.8,1.3-7.1,0.3l-110-63.5
					c-0.5-0.2-0.8-0.6-1.1-1.1c0.3-0.7,0.9-1.3,1.6-1.7l64.3-37.1c2.2-1.2,4.8-1.3,7.1-0.3l110,63.5
					C271.2,407.6,271.6,408,271.9,408.5z"/>
				<path class="st6" d="M434.5,382.9l-233.8-135c-1-0.8-1.7-2-1.7-3.3v-2.8c0-1.3,0.8-1.9,1.7-1.3l233.8,135c1.1,0.8,1.7,2,1.7,3.3
					v2.8C436.2,382.9,435.5,383.4,434.5,382.9z"/>
				<path class="st8" d="M236,234.6l-23.1-13.3c-2.9-1.7-5.2-6.2-5.2-10v-24.8c0-3.9,2.4-5.6,5.2-4l23.1,13.4
					c2.9,1.7,5.2,6.2,5.2,10v24.8C241.2,234.5,238.9,236.2,236,234.6z"/>
				<path class="st8" d="M235.9,177.8l-23.1-13.3c-2.9-1.7-5.2-8.5-5.2-11.8v-28.9c0-3.9,2.4-5.6,5.2-4l23.1,13.3
					c2.9,1.7,5.2,6.2,5.2,10V172C241.1,175.4,238.8,179.5,235.9,177.8z"/>
				<path class="st9" d="M224.5,158.5c-4.7-2.7-8.5-9.3-8.5-14.8s3.8-7.6,8.5-4.9s8.5,9.3,8.5,14.8S229.2,161.2,224.5,158.5z
					 M224.5,141.4c-3.5-2-6.3-0.4-6.3,3.7c0.2,4.5,2.6,8.6,6.3,11c3.5,2,6.3,0.4,6.3-3.6C230.6,147.9,228.3,143.8,224.5,141.4z"/>
				<polygon class="st9" points="226.9,154.5 223,148.4 223,143.2 225.2,144.5 225.2,148.5 228.3,153.4 				"/>
				<path class="st8" d="M235.9,116.7l-23.1-13.3c-2.9-1.7-5.2-9.2-5.2-12.6V64.2c0-3.3,2.4-4.7,5.2-3l23.1,13.3
					c3.1,2,5,5.4,5.2,9.1v26.6C241.1,113.5,238.8,118.3,235.9,116.7z"/>
				<path class="st9" d="M224.4,84.8c-1.4-0.8-2.5-0.2-2.5,1.5c0.1,1.8,1,3.4,2.5,4.3c1.4,0.8,2.5,0.2,2.5-1.4
					C226.8,87.3,225.8,85.7,224.4,84.8z M231.1,85.8l-2-1.2c-0.3-0.2-0.6-0.6-0.7-0.9l-0.5-2.1c-0.1-0.4-0.3-0.7-0.7-0.9l-5.7-3.3
					c-0.3-0.2-0.6-0.1-0.7,0.2l-0.5,1.5c-0.1,0.2-0.3,0.3-0.6,0.2c0,0-0.1,0-0.1-0.1l-2-1.2c-0.9-0.5-1.7-0.1-1.7,1v8.7
					c0.1,1.2,0.7,2.3,1.7,2.9l13.4,7.8c0.9,0.5,1.7,0.1,1.7-1v-8.7C232.7,87.4,232.1,86.4,231.1,85.8L231.1,85.8z M224.4,92.5
					c-2.5-1.6-4-4.3-4.2-7.3c0-2.7,1.9-3.8,4.2-2.4c2.5,1.6,4,4.3,4.2,7.3C228.5,92.8,226.7,93.8,224.4,92.5L224.4,92.5z
					 M230.5,88.7c-0.3-0.2-0.6-0.6-0.6-1c0-0.4,0.3-0.5,0.6-0.3c0.3,0.2,0.6,0.6,0.6,1C231.1,88.7,230.8,88.9,230.5,88.7L230.5,88.7
					z"/>
				<path class="st9" d="M231.6,210.4c0,4.5-7.1,10.4-7.1,10.4s-7.1-14-7.1-18.5s3.2-6.3,7.1-4.1
					C228.7,200.8,231.4,205.4,231.6,210.4z"/>
				<ellipse transform="matrix(0.866 -0.5 0.5 0.866 -72.8937 139.873)" class="st8" cx="224.6" cy="206" rx="3.8" ry="6.5"/>
				<path class="st8" d="M399.1,271l-139.6-80.6c-2.4-1.4-4.3-5-4.3-8.1V88.4c0-3.1,1.9-4.6,4.3-3.2l139.6,80.6
					c2.4,1.4,4.2,5,4.2,8.1v93.8C403.4,270.9,401.5,272.4,399.1,271z"/>
				<path class="st3" d="M383,202.8l-108.2-62.5c-2.6-1.5-4.8-5.6-4.8-9.1v-7.1c0-3.5,2.1-5.1,4.8-3.6L383,183.1
					c2.6,1.5,4.7,5.6,4.7,9.1v7.1C387.7,202.7,385.6,204.3,383,202.8z"/>
				<path class="st9" d="M324.1,200.6l-49.4-28.5c-2.6-1.5-4.8-5.6-4.8-9.1v-7c0-3.5,2.1-5.1,4.8-3.6l49.4,28.5
					c2.6,1.5,4.7,5.6,4.7,9.1v7C328.9,200.5,326.8,202.1,324.1,200.6z"/>
				
					<linearGradient id="SVGID_00000145037250990852007730000016703054753051906971_" gradientUnits="userSpaceOnUse" x1="260.5287" y1="-35.5064" x2="260.5287" y2="-80.7064" gradientTransform="matrix(0.87 0.5 0 -1.15 114.98 68.08)">
					<stop  offset="0" style="stop-color:#E9EAF2;stop-opacity:0.8"/>
					<stop  offset="1" style="stop-color:#E9EAF2;stop-opacity:0"/>
				</linearGradient>
				<path style="fill:url(#SVGID_00000145037250990852007730000016703054753051906971_);" d="M427.9,291.6c0,0-52.6,11.6-95.2-35.7
					s-77.3-41.2-77.3-41.2v29.5l172.4,99.6V291.6z"/>
				<path class="st11" d="M427.9,291.6c0,0-52.6,11.6-95.2-35.7s-77.3-41.2-77.3-41.2"/>
			</g>
			<g id="Men_12">
				<path id="_Контур_" class="st12" d="M255.2,44.4c-1.5,2.8-3.4,5.3-5.6,7.6c-0.6,0.7-5.2-1.1-4.3-1.6s4-4.7,5.5-7.5
					c1.3-3.4,2.4-6.8,3.2-10.3c0.9-3.5,1.8-8.5,2.5-10.9c0.4-1.8,1.8-3.2,3.5-3.6c1.7-0.4,2.8,0.1,2.4,2.1
					C262,23.7,259.3,37.5,255.2,44.4z"/>
				<path class="st13" d="M257.8,98.2c-1.4,1.2-3.6,0.1-3.7,0.2c-1.7,1.6-3.5,3-5.3,4.4c-0.9,0.7-2.3,1.6-2,3
					c0.4,2.4,4.3,1.7,5.8,0.9s2.7-2,4-2.8c1-0.6,2-0.9,2.1-2.2C258.9,101.1,258.1,98.2,257.8,98.2z"/>
				<path class="st14" d="M258.8,101.3c-0.2,1.2-1.1,1.5-2.1,2.1c-1.4,0.9-2.6,2.1-4.1,2.9s-4.7,1.4-5.7-0.4
					c0.5,2.3,4.3,1.6,5.8,0.9s2.7-2,4-2.8c1-0.6,2-0.9,2.1-2.2C258.8,101.6,258.8,101.5,258.8,101.3z"/>
				<path class="st13" d="M243.3,89.9c-1.4,1.2-3.9-0.1-4.1,0c-1.5,1.5-3.1,2.9-4.7,4.3c-0.9,0.7-2.3,1.7-2,3
					c0.4,2.4,4.3,1.7,5.8,0.9s2.6-2,4-2.8c1-0.6,2-0.9,2.1-2.2C244.5,92.3,243.5,89.8,243.3,89.9z"/>
				<path class="st14" d="M244.4,92.7c-0.2,1.2-1.1,1.5-2.1,2.1c-1.4,0.9-2.6,2.1-4.1,2.9s-4.7,1.4-5.7-0.4c0.5,2.3,4.3,1.6,5.8,0.9
					s2.6-2,4-2.8c1-0.6,2-0.9,2.1-2.2C244.4,93.1,244.4,92.9,244.4,92.7z"/>
				<path id="_Контур_2" class="st9" d="M277,52.2c1.6,9.9-2.8,13.6-8.6,15.8c-4.1,1.5-10,3.9-10,3.9s0.1,2.2,0.1,7.1
					c0,4.3-0.5,20-0.5,20c-1.4,0.7-3,0.7-4.4,0c0,0-2.3-12.1-2.8-17.5c-0.7-7.4-1.8-12.2-1.4-13.8c0.3-1.4,8.4-5.4,11-7.5l-16.9,5.7
					c0.3,1.8,0.5,3.7,0.5,5.6c-0.1,5.8-0.5,18.5-0.5,18.5s-2.3,1.7-4.3,0c0,0-4.2-25.1-3.7-28.4c0.5-3.2,15.4-9.6,18-11.8
					c0.9-0.8,2.1-1.1,3.3-0.9L277,52.2z"/>
				<g id="_Группа_">
					<g id="_Группа_2">
						<path id="_Контур_3" class="st15" d="M236.5,56.4l11.4-6.5c0.2-0.1,0.5-0.1,0.6,0l19.9,11.5l-11.7,6.7L236.5,56.4z"/>
						<path class="st16" d="M257.3,65.7l0.9,0.5c0.1,0,0.1,0.1,0,0.2l-0.8,0.5c-0.1,0-0.2,0-0.3,0l-0.9-0.5c-0.1,0-0.1-0.1,0-0.2
							l0.8-0.5C257.1,65.6,257.2,65.6,257.3,65.7z"/>
						<path class="st16" d="M256.1,65l0.9,0.5c0.1,0,0.1,0.1,0,0.2l-0.8,0.5c-0.1,0-0.2,0-0.3,0l-0.9-0.5c-0.1,0-0.1-0.1,0-0.2
							l0.8-0.5C255.9,64.9,256,64.9,256.1,65z"/>
						<path class="st16" d="M254.8,64.2l0.9,0.5c0.1,0,0.1,0.1,0,0.2l-0.8,0.5c-0.1,0-0.2,0-0.3,0l-0.9-0.5c-0.1,0-0.1-0.1,0-0.2
							l0.8-0.5C254.6,64.2,254.8,64.2,254.8,64.2z"/>
						<path class="st16" d="M253.6,63.5l0.9,0.5c0.1,0,0.1,0.1,0,0.2l-0.8,0.5c-0.1,0-0.2,0-0.3,0l-0.9-0.5c-0.1,0-0.1-0.1,0-0.2
							l0.8-0.5C253.4,63.5,253.5,63.5,253.6,63.5z"/>
						<path class="st16" d="M252.4,62.8l0.9,0.5c0.1,0,0.1,0.1,0,0.2l-0.8,0.5c-0.1,0-0.2,0-0.3,0l-0.9-0.5c-0.1,0-0.1-0.1,0-0.2
							l0.8-0.5C252.2,62.8,252.3,62.8,252.4,62.8z"/>
						<path class="st16" d="M251.2,62.1l0.9,0.5c0.1,0,0.1,0.1,0,0.2l-0.8,0.5c-0.1,0-0.2,0-0.3,0l-0.9-0.5c-0.1,0-0.1-0.1,0-0.2
							l0.8-0.5C251,62.1,251.1,62.1,251.2,62.1z"/>
						<path class="st16" d="M250,61.4l0.9,0.5c0.1,0,0.1,0.1,0,0.2l-0.8,0.5c-0.1,0-0.2,0-0.3,0l-0.9-0.5c-0.1,0-0.1-0.1,0-0.2
							l0.8-0.5C249.8,61.4,249.9,61.4,250,61.4z"/>
						<path class="st16" d="M248.7,60.7l0.9,0.5c0.1,0,0.1,0.1,0,0.2l-0.8,0.5c-0.1,0-0.2,0-0.3,0l-0.9-0.5c-0.1,0-0.1-0.1,0-0.2
							l0.8-0.5C248.5,60.7,248.6,60.7,248.7,60.7z"/>
						<path class="st16" d="M247.5,60l0.9,0.5c0.1,0,0.1,0.1,0,0.2l-0.8,0.5c-0.1,0-0.2,0-0.3,0l-0.9-0.5c-0.1,0-0.1-0.1,0-0.2
							l0.8-0.5C247.3,60,247.4,60,247.5,60z"/>
						<path class="st16" d="M246.3,59.3l0.9,0.5c0.1,0,0.1,0.1,0,0.2l-0.8,0.5c-0.1,0-0.2,0-0.3,0l-0.9-0.5c-0.1,0-0.1-0.1,0-0.2
							l0.8-0.5C246.1,59.2,246.2,59.2,246.3,59.3z"/>
						<path class="st16" d="M245.1,58.6l0.9,0.5c0.1,0,0.1,0.1,0,0.2l-0.8,0.5c-0.1,0-0.2,0-0.3,0l-0.9-0.5c-0.1,0-0.1-0.1,0-0.2
							l0.8-0.5C244.9,58.5,245,58.5,245.1,58.6z"/>
						<path class="st16" d="M243.8,57.9l0.9,0.5c0.1,0,0.1,0.1,0,0.2l-0.8,0.5c-0.1,0-0.2,0-0.3,0l-0.9-0.5c-0.1,0-0.1-0.1,0-0.2
							l0.8-0.5C243.6,57.8,243.8,57.8,243.8,57.9z"/>
						<path class="st16" d="M242.6,57.2l0.9,0.5c0.1,0,0.1,0.1,0,0.2l-0.8,0.5c-0.1,0-0.2,0-0.3,0l-0.9-0.5c-0.1,0-0.1-0.1,0-0.2
							l0.8-0.5C242.4,57.1,242.5,57.1,242.6,57.2z"/>
						<path class="st16" d="M240.8,56.1l1.4,0.8c0.1,0,0.1,0.1,0,0.2l-0.8,0.5c-0.1,0-0.2,0-0.3,0l-1.4-0.8c-0.1,0-0.1-0.1,0-0.2
							l0.8-0.5C240.6,56.1,240.7,56.1,240.8,56.1z"/>
						<path class="st16" d="M256.7,63.9l0.9,0.5c0.1,0,0.1,0.1,0,0.2l-0.8,0.5c-0.1,0.1-0.2,0.1-0.3,0l-0.9-0.5
							c-0.1,0-0.1-0.1,0-0.2l0.8-0.5C256.5,63.9,256.6,63.9,256.7,63.9z"/>
						<path class="st16" d="M255.4,63.2l0.9,0.5c0.1,0,0.1,0.1,0,0.2l-0.8,0.5c-0.1,0-0.2,0-0.3,0l-0.9-0.5c-0.1,0-0.1-0.1,0-0.2
							l0.8-0.5C255.3,63.2,255.4,63.2,255.4,63.2z"/>
						<path class="st16" d="M254.2,62.5l0.9,0.5c0.1,0,0.1,0.1,0,0.2l-0.8,0.5c-0.1,0-0.2,0-0.3,0l-0.9-0.5c-0.1,0-0.1-0.1,0-0.2
							l0.8-0.5C254,62.5,254.1,62.5,254.2,62.5z"/>
						<path class="st16" d="M253,61.8l0.9,0.5c0.1,0,0.1,0.1,0,0.2l-0.8,0.5c-0.1,0-0.2,0-0.3,0l-0.9-0.5c-0.1,0-0.1-0.1,0-0.2
							l0.8-0.5C252.8,61.8,252.9,61.7,253,61.8z"/>
						<path class="st16" d="M251.8,61.1l0.9,0.5c0.1,0,0.1,0.1,0,0.2l-0.8,0.5c-0.1,0-0.2,0-0.3,0l-0.9-0.5c-0.1,0-0.1-0.1,0-0.2
							l0.8-0.5C251.6,61,251.7,61,251.8,61.1z"/>
						<path class="st16" d="M250.6,60.4l0.9,0.5c0.1,0,0.1,0.1,0,0.2l-0.8,0.5c-0.1,0-0.2,0-0.3,0l-0.9-0.5c-0.1,0-0.1-0.1,0-0.2
							l0.8-0.5C250.4,60.3,250.5,60.3,250.6,60.4z"/>
						<path class="st16" d="M249.3,59.7l0.9,0.5c0.1,0,0.1,0.1,0,0.2l-0.8,0.5c-0.1,0-0.2,0-0.3,0l-0.9-0.5c-0.1,0-0.1-0.1,0-0.2
							l0.8-0.5C249.1,59.6,249.2,59.6,249.3,59.7z"/>
						<path class="st16" d="M248.1,59l0.9,0.5c0.1,0,0.1,0.1,0,0.2l-0.8,0.5c-0.1,0-0.2,0-0.3,0l-0.9-0.5c-0.1,0-0.1-0.1,0-0.2
							l0.8-0.5C247.9,59,248,59,248.1,59z"/>
						<path class="st16" d="M246.9,58.3l0.9,0.5c0.1,0,0.1,0.1,0,0.2l-0.8,0.5c-0.1,0-0.2,0-0.3,0l-0.9-0.5c-0.1,0-0.1-0.1,0-0.2
							l0.8-0.5C246.7,58.2,246.8,58.2,246.9,58.3z"/>
						<path class="st16" d="M245.6,57.5l0.9,0.5c0.1,0,0.1,0.1,0,0.2l-0.8,0.5c-0.1,0-0.2,0-0.3,0l-0.9-0.5c-0.1,0-0.1-0.1,0-0.2
							l0.8-0.5C245.5,57.5,245.6,57.5,245.6,57.5z"/>
						<path class="st16" d="M244.4,56.8l0.9,0.5c0.1,0,0.1,0.1,0,0.2l-0.8,0.5c-0.1,0-0.2,0-0.3,0l-0.9-0.5c-0.1,0-0.1-0.1,0-0.2
							l0.8-0.5C244.2,56.8,244.3,56.8,244.4,56.8z"/>
						<path class="st16" d="M243.2,56.1l0.9,0.5c0.1,0,0.1,0.1,0,0.2l-0.8,0.5c-0.1,0-0.2,0-0.3,0l-0.9-0.5c-0.1,0-0.1-0.1,0-0.2
							l0.8-0.5C243,56.1,243.1,56.1,243.2,56.1z"/>
						<path class="st16" d="M257.9,64.6l1.5,0.8c0.1,0,0.1,0.1,0,0.2l-0.8,0.5c-0.1,0-0.2,0-0.3,0l-1.5-0.8c-0.1,0-0.1-0.1,0-0.2
							l0.8-0.5C257.7,64.6,257.8,64.6,257.9,64.6z"/>
						<path class="st16" d="M240.9,56.1l0.9,0.5c0.1,0,0.2,0,0.3,0l0.9-0.5c0,0,0.1-0.1,0-0.1c0,0,0,0,0,0h-0.1
							c-0.1,0-0.1-0.1,0-0.1l0.9-0.5c0.1,0,0.1-0.1,0-0.2l-0.6-0.3c-0.1,0-0.2,0-0.3,0l-0.9,0.5l-0.2,0.1l-0.1,0.1l-0.1,0.1
							l-0.7,0.4C240.8,56,240.8,56.1,240.9,56.1z"/>
						<path class="st16" d="M262,62.9l0.9,0.5c0.1,0,0.1,0.1,0,0.2L262,64c-0.1,0.1-0.2,0.1-0.3,0l-0.9-0.5c-0.1,0-0.1-0.1,0-0.2
							l0.8-0.5C261.8,62.9,261.9,62.9,262,62.9z"/>
						<path class="st16" d="M260.8,62.2l0.9,0.5c0.1,0,0.1,0.1,0,0.2l-0.8,0.5c-0.1,0-0.2,0-0.3,0l-0.9-0.5c-0.1,0-0.1-0.1,0-0.2
							l0.8-0.5C260.6,62.2,260.7,62.2,260.8,62.2z"/>
						<path class="st16" d="M259.6,61.5l0.9,0.5c0.1,0,0.1,0.1,0,0.2l-0.8,0.5c-0.1,0-0.2,0-0.3,0l-0.9-0.5c-0.1,0-0.1-0.1,0-0.2
							l0.8-0.5C259.4,61.4,259.5,61.5,259.6,61.5z"/>
						<path class="st16" d="M249.2,55.5l0.9,0.5c0.1,0,0.1,0.1,0,0.2l-0.8,0.5c-0.1,0-0.2,0-0.3,0l-0.9-0.5c-0.1,0-0.1-0.1,0-0.2
							l0.8-0.5C249,55.5,249.1,55.5,249.2,55.5z"/>
						<path class="st16" d="M248,54.8l0.9,0.5c0.1,0,0.1,0.1,0,0.2l-0.8,0.5c-0.1,0-0.2,0-0.3,0l-0.9-0.5c-0.1,0-0.1-0.1,0-0.2
							l0.8-0.5C247.8,54.8,247.9,54.8,248,54.8z"/>
						<path class="st16" d="M246.8,54.1l0.9,0.5c0.1,0,0.1,0.1,0,0.2l-0.8,0.5c-0.1,0-0.2,0-0.3,0l-0.9-0.5c-0.1,0-0.1-0.1,0-0.2
							l0.8-0.5C246.6,54,246.7,54,246.8,54.1z"/>
						<path class="st16" d="M245.5,53.4l0.9,0.5c0.1,0,0.1,0.1,0,0.2l-0.8,0.5c-0.1,0-0.2,0-0.3,0l-0.9-0.5c-0.1,0-0.1-0.1,0-0.2
							l0.8-0.5C245.4,53.3,245.5,53.3,245.5,53.4z"/>
						<path class="st16" d="M258.1,60.6l1.2,0.7c0.1,0,0.1,0.1,0,0.2l-0.8,0.5c-0.1,0-0.2,0-0.3,0l-1.2-0.7c-0.1,0-0.1-0.1,0-0.2
							l0.8-0.5C257.9,60.6,258,60.6,258.1,60.6z"/>
						<path class="st16" d="M250.4,56.2l1.2,0.7c0.1,0,0.1,0.1,0,0.2l-0.8,0.5c-0.1,0-0.2,0-0.3,0l-1.2-0.7c-0.1,0-0.1-0.1,0-0.2
							l0.8-0.5C250.2,56.2,250.3,56.2,250.4,56.2z"/>
						<path class="st16" d="M252,57.1l5.8,3.3c0.1,0,0.1,0.1,0,0.2l-0.8,0.5c-0.1,0-0.2,0-0.3,0l-5.8-3.3c-0.1,0-0.1-0.1,0-0.2
							l0.8-0.5C251.8,57,251.9,57,252,57.1z"/>
						<path class="st16" d="M257.5,63l0.9,0.5c0.1,0,0.1,0.1,0,0.2l-0.8,0.5c-0.1,0-0.2,0-0.3,0l-0.9-0.5c-0.1,0-0.1-0.1,0-0.2
							l0.8-0.5C257.3,63,257.4,63,257.5,63z"/>
						<path class="st16" d="M256.3,62.3l0.9,0.5c0.1,0,0.1,0.1,0,0.2l-0.8,0.5c-0.1,0-0.2,0-0.3,0l-0.9-0.5c-0.1,0-0.1-0.1,0-0.2
							l0.8-0.5C256.1,62.3,256.2,62.3,256.3,62.3z"/>
						<path class="st16" d="M255.1,61.6l0.9,0.5c0.1,0,0.1,0.1,0,0.2l-0.8,0.5c-0.1,0-0.2,0-0.3,0l-0.9-0.5c-0.1,0-0.1-0.1,0-0.2
							l0.8-0.5C254.9,61.6,255,61.6,255.1,61.6z"/>
						<path class="st16" d="M253.9,60.9l0.9,0.5c0.1,0,0.1,0.1,0,0.2l-0.8,0.5c-0.1,0-0.2,0-0.3,0l-0.9-0.5c-0.1,0-0.1-0.1,0-0.2
							l0.8-0.5C253.7,60.9,253.8,60.9,253.9,60.9z"/>
						<path class="st16" d="M252.6,60.2l0.9,0.5c0.1,0,0.1,0.1,0,0.2l-0.8,0.5c-0.1,0-0.2,0-0.3,0l-0.9-0.5c-0.1,0-0.1-0.1,0-0.2
							l0.8-0.5C252.4,60.2,252.5,60.2,252.6,60.2z"/>
						<path class="st16" d="M251.4,59.5l0.9,0.5c0.1,0,0.1,0.1,0,0.2l-0.8,0.5c-0.1,0-0.2,0-0.3,0l-0.9-0.5c-0.1,0-0.1-0.1,0-0.2
							l0.8-0.5C251.2,59.5,251.3,59.5,251.4,59.5z"/>
						<path class="st16" d="M250.2,58.8l0.9,0.5c0.1,0,0.1,0.1,0,0.2l-0.8,0.5c-0.1,0-0.2,0-0.3,0l-0.9-0.5c-0.1,0-0.1-0.1,0-0.2
							l0.8-0.5C250,58.8,250.1,58.8,250.2,58.8z"/>
						<path class="st16" d="M249,58.1l0.9,0.5c0.1,0,0.1,0.1,0,0.2l-0.8,0.5c-0.1,0.1-0.2,0.1-0.3,0l-0.9-0.5c-0.1,0-0.1-0.1,0-0.2
							l0.8-0.5C248.8,58.1,248.9,58.1,249,58.1z"/>
						<path class="st16" d="M247.7,57.4l0.9,0.5c0.1,0,0.1,0.1,0,0.2l-0.8,0.5c-0.1,0-0.2,0-0.3,0l-0.9-0.5c-0.1,0-0.1-0.1,0-0.2
							l0.8-0.5C247.6,57.4,247.7,57.4,247.7,57.4z"/>
						<path class="st16" d="M246.5,56.7l0.9,0.5c0.1,0,0.1,0.1,0,0.2l-0.8,0.5c-0.1,0-0.2,0-0.3,0l-0.9-0.5c-0.1,0-0.1-0.1,0-0.2
							l0.8-0.5C246.3,56.6,246.4,56.6,246.5,56.7z"/>
						<path class="st16" d="M245.3,56l0.9,0.5c0.1,0,0.1,0.1,0,0.2l-0.8,0.5c-0.1,0-0.2,0-0.3,0l-0.9-0.5c-0.1,0-0.1-0.1,0-0.2
							L245,56C245.1,55.9,245.2,55.9,245.3,56z"/>
						<path class="st16" d="M244.1,55.3l0.9,0.5c0.1,0,0.1,0.1,0,0.2l-0.8,0.5c-0.1,0-0.2,0-0.3,0l-0.9-0.5c-0.1,0-0.1-0.1,0-0.2
							l0.8-0.5C243.9,55.2,244,55.2,244.1,55.3z"/>
						<path class="st16" d="M258.8,63.8l1.8,1c0.1,0,0.1,0.1,0,0.2l-0.8,0.5c-0.1,0-0.2,0-0.3,0l-1.8-1c-0.1,0-0.1-0.1,0-0.2
							l0.8-0.5C258.6,63.7,258.7,63.7,258.8,63.8z"/>
						<path class="st16" d="M259.3,62.7l0.9,0.5c0.1,0,0.1,0.1,0,0.2l-0.8,0.5c-0.1,0-0.2,0-0.3,0l-0.9-0.5c-0.1,0-0.1-0.1,0-0.2
							l0.8-0.5C259.1,62.7,259.2,62.7,259.3,62.7z"/>
						<path class="st16" d="M258.1,62l0.9,0.5c0.1,0,0.1,0.1,0,0.2l-0.8,0.5c-0.1,0-0.2,0-0.3,0l-0.9-0.5c-0.1,0-0.1-0.1,0-0.2
							l0.8-0.5C257.9,62,258,62,258.1,62z"/>
						<path class="st16" d="M256.9,61.3l0.9,0.5c0.1,0,0.1,0.1,0,0.2l-0.8,0.5c-0.1,0-0.2,0-0.3,0l-0.9-0.5c-0.1,0-0.1-0.1,0-0.2
							l0.8-0.5C256.7,61.3,256.8,61.2,256.9,61.3z"/>
						<path class="st16" d="M255.6,60.6l0.9,0.5c0.1,0,0.1,0.1,0,0.2l-0.8,0.5c-0.1,0.1-0.2,0.1-0.3,0l-0.9-0.5
							c-0.1,0-0.1-0.1,0-0.2l0.8-0.5C255.5,60.5,255.6,60.5,255.6,60.6z"/>
						<path class="st16" d="M254.4,59.9l0.9,0.5c0.1,0,0.1,0.1,0,0.2l-0.8,0.5c-0.1,0-0.2,0-0.3,0l-0.9-0.5c-0.1,0-0.1-0.1,0-0.2
							l0.8-0.5C254.2,59.8,254.3,59.8,254.4,59.9z"/>
						<path class="st16" d="M253.2,59.2l0.9,0.5c0.1,0,0.1,0.1,0,0.2l-0.8,0.5c-0.1,0-0.2,0-0.3,0l-0.9-0.5c-0.1,0-0.1-0.1,0-0.2
							l0.8-0.5C253,59.1,253.1,59.1,253.2,59.2z"/>
						<path class="st16" d="M252,58.5l0.9,0.5c0.1,0,0.1,0.1,0,0.2l-0.8,0.5c-0.1,0-0.2,0-0.3,0l-0.9-0.5c-0.1,0-0.1-0.1,0-0.2
							l0.8-0.5C251.8,58.4,251.9,58.4,252,58.5z"/>
						<path class="st16" d="M250.8,57.8l0.9,0.5c0.1,0,0.1,0.1,0,0.2l-0.8,0.5c-0.1,0-0.2,0-0.3,0l-0.9-0.5c-0.1,0-0.1-0.1,0-0.2
							l0.8-0.5C250.6,57.7,250.7,57.7,250.8,57.8z"/>
						<path class="st16" d="M249.5,57.1l0.9,0.5c0.1,0,0.1,0.1,0,0.2l-0.8,0.5c-0.1,0-0.2,0-0.3,0l-0.9-0.5c-0.1,0-0.1-0.1,0-0.2
							l0.8-0.5C249.3,57,249.5,57,249.5,57.1z"/>
						<path class="st16" d="M248.3,56.3l0.9,0.5c0.1,0,0.1,0.1,0,0.2l-0.8,0.5c-0.1,0-0.2,0-0.3,0l-0.9-0.5c-0.1,0-0.1-0.1,0-0.2
							l0.8-0.5C248.1,56.3,248.2,56.3,248.3,56.3z"/>
						<path class="st16" d="M247.1,55.7l0.9,0.5c0.1,0,0.1,0.1,0,0.2l-0.8,0.5c-0.1,0-0.2,0-0.3,0l-0.9-0.5c-0.1,0-0.1-0.1,0-0.2
							l0.8-0.5C246.9,55.6,247,55.6,247.1,55.7z"/>
						<path class="st16" d="M244.4,54.1l2.4,1.4c0.1,0,0.1,0.1,0,0.2l-0.8,0.5c-0.1,0-0.2,0-0.3,0l-2.4-1.4c-0.1,0-0.1-0.1,0-0.2
							l0.8-0.5C244.2,54,244.3,54,244.4,54.1z"/>
						<path class="st16" d="M260.5,63.4l1.2,0.7c0.1,0,0.1,0.1,0,0.2l-0.8,0.5c-0.1,0-0.2,0-0.3,0l-1.2-0.7c-0.1,0-0.1-0.1,0-0.2
							l0.8-0.5C260.4,63.4,260.5,63.4,260.5,63.4z"/>
						<path class="st16" d="M239.6,56.8l17.4,10c0.1,0,0.1,0.1,0,0.2l-0.4,0.2c-0.1,0-0.2,0-0.3,0l-17.4-10c-0.1,0-0.1-0.1,0-0.2
							l0.4-0.2C239.4,56.8,239.5,56.8,239.6,56.8z"/>
						<polygon id="_Контур_4" class="st17" points="259.9,57.3 259.8,57.3 256.8,59.1 251.4,56 251.3,55.9 254.4,54.1 						
							"/>
						<polygon id="_Контур_5" class="st18" points="259.8,57.3 256.8,59.1 251.4,56 254.4,54.3 						"/>
						<path id="_Контур_6" class="st18" d="M268.4,61.3v0.3c0,0.4-0.2,0.8-0.5,1l-10.6,6.1c-0.3,0.2-0.8,0.2-1.1,0l-19.1-11
							c-0.4-0.2-0.6-0.6-0.6-1v-0.3l20.2,11.7L268.4,61.3z"/>
						<path id="_Контур_7" class="st15" d="M256.5,68.2c-0.4,0.1-0.8,0.1-1.1-0.1l-19-11c-0.3-0.2-0.6-0.5-0.6-0.9l-2.1-12.4
							c0-0.1,0-0.1,0-0.2c0-0.3,0.1-0.7,0.4-0.9l19.8,11.4c0.2,0.1,0.4,0.4,0.5,0.7L256.5,68.2z"/>
						<path id="_Контур_8" class="st18" d="M256.8,68.1l-0.1,0.1l-0.2,0.1l-2.3-13.5c-0.1-0.3-0.2-0.5-0.5-0.7L234,42.7
							c0.1-0.1,0.2-0.2,0.3-0.2l19.8,11.5c0.2,0.1,0.4,0.4,0.5,0.7L256.8,68.1z"/>
					</g>
				</g>
				<path id="_Контур_9" class="st12" d="M271.2,14.8c0,0-0.2,4.7-0.1,5.1s2.2,1.8,2.8,2.3s-3.3,4.3-5.1,5.2s-7.9-1.4-8-4.4
					s1-5.4,1.9-5.5S271.2,14.8,271.2,14.8z"/>
				<path id="_Контур_10" class="st15" d="M271.7,20.8c0,0-3.4,5.1-8.2,5.6c-1.5-1.5-1.6-6.8,0.4-8.5c0,0-1.9-1.6-3.2-1.2
					c-1.4,0.8-2.5,2.2-3,3.8c-1.2,3.5-1.8,7.3-1.7,11c0.1,5,0,17.7,0,17.7c0.6,3,2.4,5.7,5,7.3c3.5,2,7.5,2.5,11.4,1.6
					c2.4-0.6,3.3-1.9,4.2-3.7c-0.2-3.5-1.6-10.8-1-15.2s1.5-7.7,1.8-11.3s-0.5-3.5-2.3-4.8C274,22.2,272.9,21.5,271.7,20.8z"/>
				<path id="_Контур_11" class="st12" d="M266.2,61.6c0.9-0.6,1.8-1.1,2.7-1.5c0.9-0.3,1.7-0.8,2.3-1.4
					c0.8-0.8,2.2-3.9,3.2-7c1-3.4,1.4-7,1.1-10.6c-0.4-4.3-2-10.2-2.3-12.7s0.4-3.4,1.5-4.3c1.3-1.1,3.2-0.6,4.2,2.9
					c1.3,4.8,2,9.6,2.2,14.6c0,3.7-0.5,7.3-1.7,10.8c-1,3-2.4,5.8-4.1,8.5c-0.5,0.8-0.6,1.5-1.4,3.1c-0.7,1.6-1.8,3.1-3.1,4.2
					c-1.2,0.9-1.8,1-2.1,0.8s-0.3-0.6,0.2-1c0.9-0.7,1.6-1.5,2.1-2.4c0,0-1,1.1-1.7,1.6c-0.6,0.5-1.3,0.9-2,1.3
					c-0.7,0.3-1.7-0.3-1.2-0.8s1-0.7,2-1.6c0.5-0.5,1-1,1.4-1.6c-0.7,0.5-1.4,1-2.2,1.4c-0.6,0.4-1.3,0.6-2,0.6
					c-0.4,0-0.8-0.5-0.1-1c1-0.5,1.9-1.2,2.7-1.9c0.8-0.8,1.2-1.4,1-1.4s-0.6,0.5-1.5,0.8s-1.9,0-2-0.5S265.3,62,266.2,61.6z"/>
				<path id="_Контур_12" class="st12" d="M260.4,7.8L260.4,7.8c0.6-3.7,3.2-6.4,7-6.2c4,0.2,7.1,3.6,6.9,7.6
					c-0.1,2.3-1.3,4.4-3.2,5.7c-0.1,0.6-0.3,1.1-0.6,1.6c-1.3,1.6-5.4,2.6-6.6,2.4c-1.4-0.1-2.6-1.1-3-2.5
					C259.7,13.4,260.1,9.6,260.4,7.8z"/>
				<path class="st16" d="M271.2,14.8L271.2,14.8l-0.4-3.2c0,0,2.6-6.8-3.6-5.5c-4.1,0.9-5.1,1.2-6.4-1.5s3.1-5.2,8.3-4.5
					c3.7,0.4,6.5,3.6,6.4,7.3C275.5,9.4,275,13.5,271.2,14.8z"/>
				<path class="st19" d="M281.8,33.2c0,0-3.4,3.4-7.4,2.4c-0.6-0.4-2-8.2-2-8.2s0-4.4,3.3-4.2S281.8,33.2,281.8,33.2z"/>
				<path class="st19" d="M256.2,26.7c-0.9,0-1.8-0.4-2.5-1.1c0.1-1.8,2.4-8.4,6.9-8.9c-1.2,0.9-2.2,2-2.8,3.4
					C257.1,22.2,256.6,24.5,256.2,26.7z"/>
			</g>
			<path class="st20" d="M459.4,311.1l-83.5-48.2c-5.2-3-9.5-11.1-9.5-18.1V113.4c0-7,4.2-10.2,9.5-7.2l83.5,48.2
				c5.2,3,9.5,11.1,9.5,18.1V304C468.9,311,464.6,314.2,459.4,311.1z"/>
			<polygon class="st20" points="462.7,313.1 465.6,311.7 463.7,307.9 			"/>
			<path class="st20" d="M367.9,106.6c0.8-0.5,1.7-0.9,2.6-1.3l2.1,4.2L367.9,106.6z"/>
			<path class="st21" d="M457.2,312.2L373.7,264c-5.2-3-9.5-11.1-9.5-18.1V114.5c0-7,4.2-10.2,9.5-7.2l83.5,48.2
				c5.2,3,9.5,11.1,9.5,18.1v131.4C466.7,312.1,462.5,315.3,457.2,312.2z"/>
			<polygon class="st22" points="388.9,134.7 373.7,125.9 373.7,120.4 388.9,129.2 			"/>
			<polygon class="st23" points="456.3,173.6 391.7,136.3 391.7,130.9 456.3,168.1 			"/>
			<polygon class="st22" points="388.9,152.2 373.7,143.5 373.7,138 388.9,146.8 			"/>
			<polygon class="st24" points="434.4,178.5 391.7,153.9 391.7,148.4 434.4,173.1 			"/>
			<polygon class="st22" points="388.9,161 373.7,152.2 373.7,146.8 388.9,155.5 			"/>
			<polygon class="st25" points="444.9,193.3 391.7,162.6 391.7,157.2 444.9,187.9 			"/>
			<polygon class="st22" points="388.9,169.8 373.7,161 373.7,155.5 388.9,164.3 			"/>
			<polygon class="st22" points="428.7,192.8 391.7,171.4 391.7,165.9 428.7,187.3 			"/>
			<polygon class="st22" points="388.9,143.5 373.7,134.7 373.7,129.2 388.9,138 			"/>
			<polygon class="st26" points="424,163.8 391.7,145.1 391.7,139.6 424,158.3 			"/>
			<polygon class="st22" points="388.9,178.5 373.7,169.8 373.7,164.3 388.9,173.1 			"/>
			<polygon class="st23" points="410.7,191.1 391.7,180.2 391.7,174.7 410.7,185.7 			"/>
			<polygon class="st22" points="388.9,196.1 373.7,187.3 373.7,181.8 388.9,190.6 			"/>
			<polygon class="st24" points="451.5,232.2 391.7,197.7 391.7,192.2 451.5,226.8 			"/>
			<polygon class="st22" points="388.9,204.8 373.7,196.1 373.7,190.6 388.9,199.4 			"/>
			<polygon class="st25" points="409.8,216.9 391.7,206.5 391.7,201 409.8,211.4 			"/>
			<polygon class="st22" points="388.9,213.6 373.7,204.8 373.7,199.4 388.9,208.1 			"/>
			<polygon class="st22" points="444.9,245.9 391.7,215.2 391.7,209.8 444.9,240.5 			"/>
			<polygon class="st22" points="388.9,187.3 373.7,178.5 373.7,173.1 388.9,181.8 			"/>
			<polygon class="st26" points="442,218 391.7,188.9 391.7,183.5 442,212.5 			"/>
			<polygon class="st22" points="388.9,222.4 373.7,213.6 373.7,208.1 388.9,216.9 			"/>
			<polygon class="st23" points="398.4,227.9 391.7,224 391.7,218.5 398.4,222.4 			"/>
			<polygon class="st22" points="388.9,239.9 373.7,231.1 373.7,225.7 388.9,234.4 			"/>
			<polygon class="st24" points="404.1,248.7 391.7,241.6 391.7,236.1 404.1,243.2 			"/>
			<polygon class="st22" points="388.9,248.7 373.7,239.9 373.7,234.4 388.9,243.2 			"/>
			<polygon class="st25" points="424,269 391.7,250.3 391.7,244.9 424,263.5 			"/>
			<polygon class="st22" points="388.9,257.5 373.7,248.7 373.7,243.2 388.9,252 			"/>
			<polygon class="st22" points="443,288.7 391.7,259.1 391.7,253.6 443,283.2 			"/>
			<polygon class="st22" points="388.9,231.1 373.7,222.4 373.7,216.9 388.9,225.7 			"/>
			<polygon class="st26" points="456.3,270.1 391.7,232.8 391.7,227.3 456.3,264.6 			"/>
			<path class="st0" d="M36.1,211.9l-9.1-4.7l-19.1,11c-4.3,2.5-7.8,0.5-7.8-4.5v-20.8c0.3-5.5,3.2-10.6,7.8-13.6l113.8-65.7
				c4.3-2.5,7.9-0.5,7.9,4.5V139c-0.3,5.5-3.2,10.6-7.8,13.6l-76.5,44.1"/>
			<polygon class="st0" points="126.7,112.8 131,114.5 127.4,118.2 124.8,114.1 			"/>
			<polygon class="st0" points="36.1,211.9 40.7,213.8 40.7,209.9 36.7,209.1 			"/>
			<path class="st0" d="M7.6,221c0.2,0.4-4.9-1.7-5.1-2s6.2-4,6.2-4L7.6,221z"/>
			<path class="st8" d="M49.7,198.6l76.5-44.2c4.6-3,7.5-8.1,7.9-13.6v-20.8c0-5-3.5-7-7.8-4.5L12.4,181.1c-4.6,3-7.5,8.1-7.8,13.6
				v20.9c0,5,3.5,7,7.8,4.5l19.1-11l9.2,4.7L49.7,198.6z"/>
			<polygon class="st9" points="123.9,133.5 14.7,196.5 14.7,189.3 123.9,126.3 			"/>
			<polygon class="st9" points="86.2,168 14.7,209.2 14.7,202 86.2,160.7 			"/>
		</g>
	</g>
</g>
<g id="Layer_2">
	<rect x="1" y="1" class="st27" width="470" height="501"/>
</g>
<g id="Layer_3">
	
		<image style="overflow:visible;" width="354" height="387" xlink:href="../../../../../../1A0003-PICTURE-LIBRARY/KINANTI/logo_pengayoman_kemenkumham.png"  transform="matrix(0.3669 0 0 0.3669 56 87)">
	</image>
</g>
<g id="Layer_4">
	
		<image style="overflow:visible;" width="1775" height="1662" xlink:href="../../../../../../1A0003-PICTURE-LIBRARY/KINANTI/DITJENPAS.png"  transform="matrix(8.507043e-02 0 0 8.507043e-02 280 89.493)">
	</image>
</g>
<g id="Layer_5">
	
		<image style="overflow:visible;" width="473" height="107" xlink:href="../../../../../../1A0003-PICTURE-LIBRARY/KINANTI/UNODC.png"  transform="matrix(0.9197 0 0 0.9197 18 302)">
	</image>
</g>
</svg>
